<?xml version="1.0" encoding="UTF-8"?>
<svg id="Calque_2" data-name="Calque 2" xmlns="http://www.w3.org/2000/svg" viewBox="0 0 314.31 332">
  <defs>
    <style>
      .cls-1 {
        fill: #60c5c5;
      }
    </style>
  </defs>
  <g id="Calque_1-2" data-name="Calque 1">
    <g>
      <path class="cls-1" d="M108.84,29c6.7,0,12.16,5.45,12.16,12.16V223.16c0,44.02-35.82,79.84-79.84,79.84-6.7,0-12.16-5.45-12.16-12.16V41.16c0-6.7,5.45-12.16,12.16-12.16H108.84m0-29H41.16C18.43,0,0,18.43,0,41.16v249.68c0,22.73,18.43,41.16,41.16,41.16h0c60.11,0,108.84-48.73,108.84-108.84V41.16C150,18.43,131.57,0,108.84,0h0Z"/>
      <g>
        <path class="cls-1" d="M158.03,235.96c18.68-28.25,42-64.3,64.29-99.49,18.69-29.5,34.39-54.85,45.43-73.31,19.74-33.04,18.97-34.53,18.23-35.96-.38-.74-1.14-1.2-1.98-1.2H44c-6.62,0-12-5.38-12-12s5.38-12,12-12h240c.34,0,.79,.03,1.32,.08,11.06,1.15,20.25,8,24.57,18.33,4.39,10.5,2.79,22.05-4.29,30.91L158.03,235.96Z"/>
        <path class="cls-1" d="M284,4c.19,0,.53,.01,1.11,.07,10.32,1.07,18.9,7.47,22.93,17.11,4.11,9.81,2.61,20.61-4.01,28.89l-121.16,151.58c13.21-20.35,27.37-42.4,41.13-64.13,18.7-29.51,34.41-54.88,45.45-73.35,20.32-34,19.59-35.39,18.28-37.91-.73-1.4-2.17-2.28-3.75-2.28H44c-5.51,0-10-4.49-10-10s4.49-10,10-10h240m0-4H44c-7.73,0-14,6.27-14,14s6.27,14,14,14h240c6.64,0-119.7,197.27-155.61,248.25L307.16,52.58c15.92-19.92,3.73-49.85-21.64-52.48-.6-.06-1.11-.09-1.53-.09h0ZM128.39,276.25l-9.39,11.75c0,.11,.04,.16,.1,.16,.62,0,3.96-4.35,9.29-11.91h0Z"/>
      </g>
      <g>
        <path class="cls-1" d="M123.98,138.21l98-.61c2.62,0,4.84,1.66,5.68,3.96l-103.66,.65-.02-4Z"/>
        <path class="cls-1" d="M222,139.6l-3.45,.02,3.45-.02h0m.02-4s-.03,0-.05,0l-100,.62,.05,8,108-.67c-.03-4.4-3.6-7.95-8-7.95h0Z"/>
      </g>
    </g>
  </g>
</svg>